<?xml version="1.0" encoding="UTF-8"?>
<svg version="1.1" xmlns="http://www.w3.org/2000/svg" width="512" height="512">
<path d="M0 0 C2.44225447 1.66159248 4.74768159 3.38773224 7.0390625 5.25 C7.86148437 5.86875 8.68390625 6.4875 9.53125 7.125 C19.01135737 15.15798818 26.15442074 27.99599421 27.23193359 40.4855957 C27.77068548 56.80324745 26.50264754 69.46020466 17.0390625 83.25 C17.0390625 83.91 17.0390625 84.57 17.0390625 85.25 C18.62131149 86.33591613 20.25826662 87.3424146 21.9140625 88.3125 C30.17234927 93.41820172 36.95436389 99.96973606 43.6640625 106.9375 C45.02527723 108.36564313 45.02527723 108.36564313 47.0390625 109.25 C47.28914063 108.53199219 47.53921875 107.81398438 47.796875 107.07421875 C53.06985045 95.08566135 65.36101909 86.19468305 76.0390625 79.25 C75.64074219 78.64414063 75.24242187 78.03828125 74.83203125 77.4140625 C67.02220663 65.06275836 64.72715313 52.80263761 67.3203125 38.38671875 C70.25253156 25.5901323 77.57850188 16.06555753 88.0390625 8.25 C100.57800046 0.68439271 114.37104736 -0.67185386 128.66015625 1.90234375 C141.59101046 5.82027487 152.22423707 14.97560731 158.75 26.68359375 C164.24456505 37.62277325 165.26777288 51.56610976 162.0546875 63.4453125 C160.03675945 69.31225147 157.57155394 74.19280072 154.0390625 79.25 C154.80089844 79.806875 155.56273437 80.36375 156.34765625 80.9375 C169.49801998 90.65662026 179.60563433 100.25161339 187.2890625 114.9375 C187.76484741 115.81631836 187.76484741 115.81631836 188.25024414 116.71289062 C194.23424029 128.69660133 195.70975577 141.60858313 195.56054688 154.80639648 C195.53889893 157.07967629 195.56059589 159.34985544 195.5859375 161.62304688 C195.6139741 176.11964148 191.68585493 187.3029822 181.7265625 198 C173.23115672 206.06596769 162.40180331 209.7395311 150.85083008 209.60644531 C149.54658333 209.60951187 149.54658333 209.60951187 148.21598816 209.61264038 C145.37163534 209.61562317 142.52787667 209.59724865 139.68359375 209.578125 C137.69300988 209.57506317 135.70242386 209.57319028 133.71183777 209.57244873 C129.55365716 209.56786156 125.39567191 209.55349478 121.23754883 209.53125 C115.91472755 209.50291381 110.59205936 209.49203081 105.26916981 209.4875679 C101.16418437 209.48340705 97.05922962 209.47358486 92.95425987 209.46169281 C90.99150523 209.45600804 89.0287477 209.45124348 87.06598854 209.44742584 C84.32364375 209.44053246 81.5814178 209.42688686 78.83911133 209.41113281 C78.03325592 209.41001495 77.22740051 209.40889709 76.39712524 209.40774536 C72.17016098 209.37567084 68.20300073 209.08266835 64.0390625 208.25 C63.58466797 209.22839844 63.58466797 209.22839844 63.12109375 210.2265625 C62.70214844 211.10054687 62.28320312 211.97453125 61.8515625 212.875 C61.44550781 213.73351562 61.03945313 214.59203125 60.62109375 215.4765625 C58.74013055 218.77405354 56.49619805 221.35740057 54.0390625 224.25 C54.82389637 224.25146656 55.60873024 224.25293312 56.41734695 224.25444412 C75.5043349 224.2914779 94.59113932 224.35044692 113.67798233 224.43390274 C122.90820868 224.47373093 132.1383493 224.50610417 141.36865234 224.52099609 C149.41275515 224.53399307 157.45666963 224.56090753 165.50066638 224.60461307 C169.76088863 224.62727206 174.02087822 224.64290804 178.28116608 224.64188385 C182.29006383 224.64113984 186.29844642 224.65898547 190.30721092 224.69116783 C191.77938425 224.69969544 193.25161517 224.70139739 194.72380257 224.69580269 C196.73241603 224.68918545 198.74106468 224.70940405 200.74957275 224.73101807 C202.43645391 224.73654882 202.43645391 224.73654882 204.15741348 224.74219131 C207.68516961 225.363858 208.86570326 226.45742802 211.0390625 229.25 C211.55664062 231.46972656 211.55664062 231.46972656 211.5703125 233.890625 C211.57853027 234.78885986 211.58674805 235.68709473 211.59521484 236.61254883 C211.57668457 237.56540771 211.5581543 238.5182666 211.5390625 239.5 C211.52697754 240.48057373 211.51489258 241.46114746 211.50244141 242.47143555 C211.18334947 254.3271515 209.60996953 267.31231992 201.0390625 276.25 C197.20232365 279.53057292 192.90253492 281.83346803 188.40625 284.078125 C172.84893383 291.87726607 164.41253211 303.66253973 158.6171875 320.0625 C154.751024 332.38939812 153.85481715 341.33686124 158.0390625 353.625 C161.43859908 363.74882978 163.11324277 372.63328659 158.46875 382.70703125 C149.27422337 399.06123026 130.56993507 419.87316651 112.0390625 425.25 C103.23083041 427.30660719 96.38478944 425.25071081 88.0390625 422.25 C71.49670421 416.42009399 56.82314114 420.61494371 41.265625 427.62109375 C28.75631563 433.93632621 21.70055088 442.02543489 15.87841797 454.52709961 C12.16086325 462.45884363 8.01676177 466.65224235 0.0390625 470.25 C-8.77918669 473.31721711 -17.50399294 473.72036181 -26.73339844 473.64111328 C-28.95830564 473.62501904 -31.18139726 473.64105249 -33.40625 473.66015625 C-45.68391288 473.67848519 -59.23201942 472.65923047 -68.56640625 463.7109375 C-72.17812079 459.31490962 -74.44896988 454.27793591 -76.8984375 449.1875 C-84.22969683 434.09484409 -96.82622234 427.8625127 -112.265625 422.47265625 C-116.50131708 421.07120633 -120.52882453 419.79371646 -124.9609375 419.25 C-125.73695313 419.14429688 -126.51296875 419.03859375 -127.3125 418.9296875 C-134.60688067 418.42282721 -140.56659658 420.63237017 -147.32788086 423.02514648 C-157.07694619 426.4314217 -165.28953817 427.55339784 -174.9609375 423.25 C-183.64203124 418.79915523 -190.52901124 412.42974071 -197.46679688 405.69726562 C-198.81172631 404.39453005 -200.17435308 403.11012476 -201.5390625 401.828125 C-210.61918558 393.11861919 -218.77241314 382.8108115 -219.5859375 369.8125 C-219.42199079 364.05200868 -217.77472414 359.03641038 -215.9609375 353.625 C-210.4249847 337.09572262 -214.42121006 323.55970213 -221.82617188 308.18994141 C-227.11951728 297.66905184 -233.52793316 290.51526552 -244.0390625 285.12890625 C-245.15595459 284.5555957 -245.15595459 284.5555957 -246.29541016 283.97070312 C-247.78659207 283.21668831 -249.28605873 282.47876987 -250.79443359 281.75976562 C-257.58913534 278.37247753 -262.50266233 273.66367058 -265.2109375 266.4375 C-265.50484375 265.68855469 -265.79875 264.93960937 -266.1015625 264.16796875 C-268.48463054 256.07636954 -269.32448249 248.29443505 -269.3359375 239.875 C-269.36042969 238.90433594 -269.38492187 237.93367187 -269.41015625 236.93359375 C-269.41402344 235.99902344 -269.41789062 235.06445312 -269.421875 234.1015625 C-269.43009277 233.26447754 -269.43831055 232.42739258 -269.44677734 231.56494141 C-268.77225483 228.35096026 -267.51169518 227.2879828 -264.9609375 225.25 C-262.07928848 224.74219131 -262.07928848 224.74219131 -258.67144775 224.73101807 C-257.37858353 224.71710526 -256.0857193 224.70319244 -254.75367737 224.68885803 C-253.32308834 224.69357101 -251.89250052 224.69866496 -250.46191406 224.70410156 C-248.95394321 224.69536659 -247.44598162 224.68488107 -245.93803406 224.67277527 C-241.84535266 224.64488493 -237.75297324 224.64151124 -233.66021061 224.64249516 C-229.382678 224.63936864 -225.10528192 224.61375592 -220.82781982 224.59051514 C-212.72832314 224.54993148 -204.62890701 224.52960889 -196.52932429 224.51654124 C-187.30805291 224.50067919 -178.08691878 224.46226694 -168.86572695 224.42194796 C-149.89750717 224.33951667 -130.92930033 224.28544476 -111.9609375 224.25 C-112.44377197 223.64744385 -112.92660645 223.0448877 -113.42407227 222.42407227 C-114.05627686 221.62541748 -114.68848145 220.8267627 -115.33984375 220.00390625 C-115.96705322 219.2157251 -116.5942627 218.42754395 -117.24047852 217.61547852 C-119.43064054 214.60419997 -120.69895394 211.73901338 -121.9609375 208.25 C-122.7704184 208.41134933 -123.57989929 208.57269867 -124.41390991 208.73893738 C-128.54710039 209.33445549 -132.54424653 209.41300894 -136.71337891 209.42700195 C-137.5728009 209.43357315 -138.4322229 209.44014435 -139.31768799 209.44691467 C-142.14929305 209.46655163 -144.98084527 209.47828988 -147.8125 209.48828125 C-148.78495037 209.49235678 -149.75740074 209.4964323 -150.75931931 209.50063133 C-155.90839166 209.52145294 -161.05743769 209.53577054 -166.20654297 209.54516602 C-171.49875428 209.55621172 -176.79054302 209.59060186 -182.08260536 209.63033772 C-186.17496471 209.65660293 -190.2672249 209.6648667 -194.3596611 209.66844749 C-196.30911482 209.67328921 -198.25856484 209.68483343 -200.20793533 209.70348549 C-216.83741635 209.85269048 -228.71103733 208.07282099 -241.1171875 196.18359375 C-249.18651448 187.76800833 -253.07635955 178.32058753 -253.19921875 166.765625 C-253.2072905 166.03237 -253.21536224 165.29911499 -253.22367859 164.54364014 C-253.23749544 162.98696227 -253.24822831 161.43025442 -253.25610352 159.87353516 C-253.26750328 158.31256967 -253.28775906 156.75163931 -253.31762695 155.19091797 C-253.58528512 141.17400373 -252.06723952 127.63834568 -245.3359375 115.0625 C-244.99747803 114.41087891 -244.65901855 113.75925781 -244.31030273 113.08789062 C-236.51657986 98.61056141 -225.55225011 88.3297913 -211.9609375 79.25 C-212.35925781 78.64414063 -212.75757813 78.03828125 -213.16796875 77.4140625 C-221.41454502 64.3720319 -223.06322582 50.81258574 -220.3046875 35.640625 C-216.41702151 22.70408127 -207.22749737 12.0604596 -195.52734375 5.5390625 C-183.88637288 -0.30800049 -168.82369094 -0.94029637 -156.3359375 2.8125 C-143.7307346 7.8616927 -133.93198896 17.14455525 -127.9609375 29.25 C-122.82322095 42.10428693 -122.89686345 55.78737087 -127.8359375 68.75 C-129.50976944 72.56331637 -131.49311786 75.9008162 -133.9609375 79.25 C-133.28289062 79.72308594 -132.60484375 80.19617188 -131.90625 80.68359375 C-121.26566986 88.24400595 -111.85424796 95.98579157 -104.9609375 107.25 C-104.9609375 107.91 -104.9609375 108.57 -104.9609375 109.25 C-102.06743255 106.89482155 -99.28737788 104.57644038 -96.6484375 101.9375 C-89.96337351 95.25243601 -83.26090812 89.82451408 -74.9609375 85.25 C-76.5685786 81.06420635 -78.52843177 77.18523796 -80.64453125 73.23828125 C-84.0937842 65.4083747 -85.52089655 58.1024906 -85.4609375 49.5625 C-85.45521729 48.60569336 -85.44949707 47.64888672 -85.44360352 46.66308594 C-85.12051272 33.70029175 -81.19857916 23.3858007 -72.9609375 13.25 C-72.0328125 12.01636719 -72.0328125 12.01636719 -71.0859375 10.7578125 C-54.25015514 -9.11088653 -22.01325939 -13.01047521 0 0 Z " fill="#333334" transform="translate(284.9609375,22.75)"/>
<path d="M0 0 C36.96 0 73.92 0 112 0 C112.99 6.6 113.98 13.2 115 20 C123.86965321 49.08421167 141.08761967 74.24419071 168.12670898 89.05175781 C175.50826412 92.96146453 182.8998843 96.83857016 191 99 C191.66451172 99.17756836 192.32902344 99.35513672 193.01367188 99.53808594 C224.50521055 107.63630035 255.30862173 102.42744365 283.17578125 86.12597656 C287.46984624 83.47551782 291.24450519 80.3519581 295 77 C295.81597656 76.32582031 296.63195312 75.65164063 297.47265625 74.95703125 C320.08625169 55.76867902 330.42210191 28.62318471 334 0 C370.96 0 407.92 0 446 0 C446 16.08490566 446 16.08490566 443 21 C438.77069417 25.04706234 434.4735233 27.40181684 429.1875 29.8125 C410.09383668 38.99888894 400.68863428 56.96499097 393.7890625 76.27734375 C391.7373019 83.35693355 390.55934255 90.11807927 390.5 97.5 C390.49282959 98.36077148 390.48565918 99.22154297 390.47827148 100.10839844 C390.60689549 107.07329214 392.14789563 112.91274931 394.953125 119.26757812 C397.20041838 124.49543666 397.24202323 127.57169312 396 133 C390.86606869 143.10417206 381.74697526 151.94950215 373 159 C372.13117188 159.71800781 371.26234375 160.43601562 370.3671875 161.17578125 C368.97886719 162.26439453 368.97886719 162.26439453 367.5625 163.375 C366.71816406 164.04273438 365.87382812 164.71046875 365.00390625 165.3984375 C360.50441304 167.79738707 355.97950991 168.71681066 350.94604492 167.50585938 C348.87110079 166.75402004 346.84660447 165.91835949 344.8125 165.0625 C326.98980801 158.43681654 308.6719581 161.21339898 291.7109375 168.90234375 C284.44901505 172.34022641 277.43709531 176.16883284 271 181 C270.39027344 181.43441406 269.78054688 181.86882812 269.15234375 182.31640625 C261.82387552 187.96979603 257.79421795 196.21184375 253.9375 204.4375 C251.5773984 209.17609361 250.11398866 211.99093303 245 214 C232.27229819 217.10877774 209.7475055 219.8797546 198 213 C193.92253941 208.77803772 191.55562836 204.41891106 189.125 199.125 C180.78958623 181.86775159 165.43270882 172.89010053 147.84765625 166.41796875 C131.77886571 160.82056024 114.5526631 159.06353665 98.59448242 165.86547852 C94.17371973 167.74795075 90.79986326 168.53517639 86 168 C78.43807814 164.6344715 72.54725163 159.00633453 67 153 C66.154375 152.154375 65.30875 151.30875 64.4375 150.4375 C63.633125 149.633125 62.82875 148.82875 62 148 C61.45601562 147.50242187 60.91203125 147.00484375 60.3515625 146.4921875 C55.28936021 141.73946482 49.7508117 135.97525826 48.67578125 128.8515625 C48.98574829 124.08692635 50.77769917 120.07257101 52.5625 115.6875 C59.14813579 97.95988737 54.24596752 79.44784421 46.8515625 62.78833008 C43.87651356 56.41378561 40.19227837 50.64744938 36 45 C35.52046875 44.32453125 35.0409375 43.6490625 34.546875 42.953125 C28.19558224 34.70374475 17.94987515 30.30795724 8.84765625 25.7734375 C4.45450691 23.03751185 2.42661932 20.23719603 0.75 15.375 C0 11 0 11 0 0 Z " fill="#E3EEF7" transform="translate(33,264)"/>
<path d="M0 0 C14.40437665 6.45584757 28.58762911 6.48708141 43.36328125 1.07421875 C46.50519105 -0.21575857 46.50519105 -0.21575857 49.16796875 -2.04296875 C51.5 -3.3125 51.5 -3.3125 53.4921875 -3.16015625 C62.12805287 0.48572465 69.46180496 5.54728157 76.5 11.6875 C77.10328125 12.19539062 77.7065625 12.70328125 78.328125 13.2265625 C92.93193768 26.53377499 101.39296634 47.27127636 102.78588867 66.66870117 C102.90972474 70.08707609 102.92261355 73.50094075 102.89111328 76.92114258 C102.87487261 79.01643562 102.89115071 81.10983894 102.91015625 83.20507812 C102.92170441 90.51759904 102.5364015 96.96188013 99.5 103.6875 C99.14679688 104.53441406 98.79359375 105.38132812 98.4296875 106.25390625 C93.79345231 115.02841063 87.1555514 120.6087615 77.859375 123.99609375 C72.17834158 125.6608999 66.88592974 125.84676931 61.00317383 125.86450195 C60.05290314 125.87107315 59.10263245 125.87764435 58.12356567 125.88441467 C54.98471999 125.90409366 51.84592204 125.91579859 48.70703125 125.92578125 C47.63187445 125.92985678 46.55671764 125.9339323 45.44898033 125.93813133 C39.75757415 125.95896957 34.06619191 125.97328073 28.37475586 125.98266602 C22.51174717 125.99372255 16.6491188 126.02812057 10.78624439 126.06783772 C6.26418883 126.09404537 1.74222332 126.10236158 -2.7799015 126.10594749 C-4.94033691 126.11080308 -7.10076857 126.12238755 -9.26112938 126.14098549 C-12.29312242 126.16546377 -15.32413854 126.16439584 -18.35620117 126.1574707 C-19.67907387 126.17668579 -19.67907387 126.17668579 -21.02867126 126.19628906 C-31.49552361 126.10971611 -39.96504456 121.78941203 -47.5 114.6875 C-60.48533223 100.28455508 -58.35532239 80.84270828 -57.5 62.6875 C-56.8922487 56.74438404 -55.48742481 51.30818579 -53.5 45.6875 C-53.0875 44.48996094 -52.675 43.29242188 -52.25 42.05859375 C-44.83272167 22.8621717 -30.97513099 9.02435204 -13.5 -1.3125 C-12.30117187 -2.05113281 -12.30117187 -2.05113281 -11.078125 -2.8046875 C-6.90161003 -3.62733439 -3.76314739 -1.74508648 0 0 Z " fill="#E3EEF7" transform="translate(233.5,122.3125)"/>
<path d="M0 0 C62.7 0 125.4 0 190 0 C188.83807572 16.2669399 188.83807572 16.2669399 186.4375 22.4375 C186.04377197 23.49336304 186.04377197 23.49336304 185.64208984 24.57055664 C181.17521161 36.14218229 175.37828538 46.77785853 167 56 C166.20078125 56.89203125 165.4015625 57.7840625 164.578125 58.703125 C149.50646199 74.66660239 131.26407142 82.63985917 110 87 C109.19820313 87.1959375 108.39640625 87.391875 107.5703125 87.59375 C96.69059502 89.3133406 84.66636402 88.46386771 74 86 C73.13890625 85.81695312 72.2778125 85.63390625 71.390625 85.4453125 C47.80776394 79.79379846 26.75420742 64.89183314 13.97070312 44.23583984 C10.49714179 38.36565153 7.57190009 32.31213285 5 26 C4.5978125 25.01386719 4.195625 24.02773438 3.78125 23.01171875 C0.77019074 14.89261253 0.65681085 9.19535184 0 0 Z " fill="#38668C" transform="translate(161,264)"/>
<path d="M0 0 C1.52012924 0.50213655 3.0410334 1.00193031 4.5625 1.5 C5.67818359 1.88671875 5.67818359 1.88671875 6.81640625 2.28125 C17.06192939 5.65365833 27.10795729 4.50930633 37.16015625 0.97265625 C44.04619952 -1.38583725 44.04619952 -1.38583725 47.76171875 0.1171875 C64.21458103 10.00208473 76.03673805 23.02493472 82.13671875 41.4296875 C84.06018989 49.38467674 84.23954997 57.22404943 84.3125 65.375 C84.35600586 66.98375 84.35600586 66.98375 84.40039062 68.625 C84.46918942 77.32540101 82.74743137 84.67474695 77.5 91.75 C69.84079526 99.50852418 61.05508811 101.63281531 50.54356956 101.75836086 C47.91652282 101.756684 45.29087722 101.72521011 42.6640625 101.69140625 C40.81228933 101.68782197 38.96051062 101.68647324 37.10873413 101.6872406 C33.25068422 101.68257637 29.39348148 101.65793552 25.53564453 101.61743164 C20.59945493 101.56624925 15.66418622 101.55499647 10.72776222 101.55726719 C6.91351594 101.55645069 3.09946948 101.53998844 -0.71471024 101.51826286 C-2.53510658 101.50874627 -4.35552542 101.50281083 -6.17594528 101.50058174 C-8.71713481 101.49405612 -11.257359 101.46775816 -13.79833984 101.43579102 C-14.54337769 101.43715057 -15.28841553 101.43851013 -16.05603027 101.43991089 C-20.75601703 101.35371835 -23.96257358 100.39052082 -28 98 C-28.01401855 96.77821045 -28.01401855 96.77821045 -28.02832031 95.53173828 C-28.3158622 75.54757723 -28.92694135 57.1553271 -37.92578125 38.91796875 C-39.14001398 35.6196711 -39.12548541 34.2857773 -38 31 C-32.89077111 20.1428886 -14.26248027 -5.21798059 0 0 Z " fill="#5399D3" transform="translate(380,115)"/>
<path d="M0 0 C10.32075888 3.39717287 21.00019171 2.10803495 31.18359375 -1.28125 C32.18712891 -1.85746094 32.18712891 -1.85746094 33.2109375 -2.4453125 C35.9270063 -3.59628027 37.39218771 -3.13882482 40.18359375 -2.28125 C53.9962223 4.21881049 63.79812737 15.69327549 71.43359375 28.578125 C72.99871693 33.04524741 70.76321295 36.84668776 68.87109375 40.90625 C61.48082836 58.66430798 61.4007421 76.79314828 61.18359375 95.71875 C56.40784182 98.54642615 52.42247656 99.16446901 46.98193359 99.15454102 C46.18103302 99.16461685 45.38013245 99.17469269 44.55496216 99.18507385 C41.91800806 99.21347095 39.28162858 99.21942714 36.64453125 99.22265625 C34.79855114 99.23230659 32.95257329 99.24239975 31.1065979 99.25291443 C27.2381662 99.27085771 23.36993521 99.27643767 19.50146484 99.2746582 C14.57211104 99.27435426 9.64406266 99.31522422 4.71501732 99.36697483 C0.90054558 99.40053221 -2.91361773 99.40640977 -6.72822189 99.40482903 C-8.54372002 99.40834309 -10.3592284 99.4214648 -12.17457962 99.44482613 C-23.80748236 99.58045868 -33.52579333 99.01657541 -42.79606628 91.00866699 C-49.27950946 84.44173818 -51.29398313 75.65627941 -51.32226562 66.71264648 C-51.28842773 65.13785522 -51.28842773 65.13785522 -51.25390625 63.53125 C-51.23779297 62.42918213 -51.22167969 61.32711426 -51.20507812 60.19165039 C-50.74078951 40.9165953 -45.58133551 24.14413938 -31.69140625 10.34765625 C-21.00527457 0.57623421 -13.91751768 -4.82409625 0 0 Z " fill="#5499D3" transform="translate(98.81640625,117.28125)"/>
<path d="M0 0 C13.56502614 12.81141357 20.69872884 32.60520249 21.36012268 51.00953674 C21.41159449 53.75172768 21.41637205 56.491123 21.39111328 59.23364258 C21.37487261 61.32893562 21.39115071 63.42233894 21.41015625 65.51757812 C21.42170441 72.83009904 21.0364015 79.27438013 18 86 C17.64679688 86.84691406 17.29359375 87.69382812 16.9296875 88.56640625 C12.29345231 97.34091063 5.6555514 102.9212615 -3.640625 106.30859375 C-9.32165842 107.9733999 -14.61407026 108.15926931 -20.49682617 108.17700195 C-21.44709686 108.18357315 -22.39736755 108.19014435 -23.37643433 108.19691467 C-26.51528001 108.21659366 -29.65407796 108.22829859 -32.79296875 108.23828125 C-33.86812555 108.24235678 -34.94328236 108.2464323 -36.05101967 108.25063133 C-41.74242585 108.27146957 -47.43380809 108.28578073 -53.12524414 108.29516602 C-58.98825283 108.30622255 -64.8508812 108.34062057 -70.71375561 108.38033772 C-75.23581117 108.40654537 -79.75777668 108.41486158 -84.2799015 108.41844749 C-86.44033691 108.42330308 -88.60076857 108.43488755 -90.76112938 108.45348549 C-93.79312242 108.47796377 -96.82413854 108.47689584 -99.85620117 108.4699707 C-100.7381163 108.48278076 -101.62003143 108.49559082 -102.52867126 108.50878906 C-110.85375912 108.43993097 -118.41297228 105.82343203 -124.9375 100.5625 C-125.64777344 100.00691406 -126.35804688 99.45132813 -127.08984375 98.87890625 C-129.22300415 96.78064418 -130.50537893 94.57931158 -132 92 C-131.25242432 91.75467529 -130.50484863 91.50935059 -129.73461914 91.2565918 C-82.2207203 75.55398242 -28.69673761 53.1856433 -3.328125 6.953125 C-2.17164275 4.65315467 -1.05477205 2.3480604 0 0 Z " fill="#C3DBEF" transform="translate(315,140)"/>
<path d="M0 0 C9.82258351 6.30894076 15.61772662 15.32135372 18.8125 26.375 C20.11962957 38.38683278 17.93709789 48.87758687 10.9375 58.8125 C4.28450426 66.87416575 -3.86362192 72.27522819 -14.1875 74.375 C-26.19570245 75.46145641 -37.56925725 72.77115294 -47.1875 65.375 C-54.89198315 58.55064234 -60.55954848 48.61438393 -61.4609375 38.22265625 C-61.7943346 25.79720261 -58.76297401 15.74917012 -50.1875 6.375 C-36.47576824 -7.5307657 -16.94312683 -9.29805741 0 0 Z " fill="#FED0B5" transform="translate(277.1875,37.625)"/>
<path d="M0 0 C4.29191668 3.84999158 6.70694597 7.70113486 9.1875 12.875 C9.52974609 13.55691406 9.87199219 14.23882812 10.22460938 14.94140625 C15.54868159 25.79631077 16.20607724 36.4840308 16.3125 48.375 C16.35600586 49.98375 16.35600586 49.98375 16.40039062 51.625 C16.46918942 60.32540101 14.74743137 67.67474695 9.5 74.75 C1.84079526 82.50852418 -6.94491189 84.63281531 -17.45643044 84.75836086 C-20.08347718 84.756684 -22.70912278 84.72521011 -25.3359375 84.69140625 C-27.18771067 84.68782197 -29.03948938 84.68647324 -30.89126587 84.6872406 C-34.74931578 84.68257637 -38.60651852 84.65793552 -42.46435547 84.61743164 C-47.40054507 84.56624925 -52.33581378 84.55499647 -57.27223778 84.55726719 C-61.08648406 84.55645069 -64.90053052 84.53998844 -68.71471024 84.51826286 C-70.53510658 84.50874627 -72.35552542 84.50281083 -74.17594528 84.50058174 C-76.71713481 84.49405612 -79.257359 84.46775816 -81.79833984 84.43579102 C-82.54337769 84.43715057 -83.28841553 84.43851013 -84.05603027 84.43991089 C-88.75601703 84.35371835 -91.96257358 83.39052082 -96 81 C-96.01401855 79.77821045 -96.01401855 79.77821045 -96.02832031 78.53173828 C-96.3158622 58.54757723 -96.92694135 40.1553271 -105.92578125 21.91796875 C-107.11630083 18.68408464 -107.05464246 17.23160497 -106 14 C-105.67 13.34 -105.34 12.68 -105 12 C-104.34 12 -103.68 12 -103 12 C-98.29965885 20.45376892 -93.84641487 28.70773558 -91 38 C-90.68095703 39.02287109 -90.68095703 39.02287109 -90.35546875 40.06640625 C-88.17517108 47.83077564 -87.9459343 55.84379764 -87.9765625 63.86328125 C-87.97994629 65.01739502 -87.98333008 66.17150879 -87.98681641 67.3605957 C-87.99116699 68.23159912 -87.99551758 69.10260254 -88 70 C-54.87248122 59.60144386 -23.89445084 47.40492183 -6.18359375 15.75390625 C-3.51894837 10.61081962 -1.28508586 5.65437777 0 0 Z " fill="#3587CA" transform="translate(448,132)"/>
<path d="M0 0 C7.59 0 15.18 0 23 0 C23.5249923 15.22477676 23.5249923 15.22477676 20 21 C15.77069417 25.04706234 11.4735233 27.40181684 6.1875 29.8125 C-12.90616332 38.99888894 -22.31136572 56.96499097 -29.2109375 76.27734375 C-31.2626981 83.35693355 -32.44065745 90.11807927 -32.5 97.5 C-32.50717041 98.36077148 -32.51434082 99.22154297 -32.52172852 100.10839844 C-32.39310451 107.07329214 -30.85210437 112.91274931 -28.046875 119.26757812 C-25.79958162 124.49543666 -25.75797677 127.57169312 -27 133 C-32.13393131 143.10417206 -41.25302474 151.94950215 -50 159 C-50.86882812 159.71800781 -51.73765625 160.43601562 -52.6328125 161.17578125 C-58.17490188 165.52145858 -62.7474745 168.84420932 -70 168 C-73.11037742 167.23071581 -76.04569656 166.23619789 -79 165 C-77.515 164.01 -77.515 164.01 -76 163 C-66.16654862 155.21045306 -54.44610586 144.53129404 -51 132 C-50.59914339 125.69500106 -51.71984398 121.3242766 -54 115.5 C-60.60934958 97.1400609 -55.85778975 80.21288966 -47.98242188 63.00830078 C-41.53943212 49.83731824 -32.73500427 41.31542324 -19.75 34.875 C-10.84480625 30.6678804 -10.84480625 30.6678804 -5 23 C-4.43152344 21.86498047 -4.43152344 21.86498047 -3.8515625 20.70703125 C-2.61106558 16.76361673 -2.0063725 12.76643094 -1.375 8.6875 C-0.92125 5.820625 -0.4675 2.95375 0 0 Z " fill="#C3DAEE" transform="translate(456,264)"/>
<path d="M0 0 C3.45911209 3.25841276 6.07365125 6.34121748 8.375 10.5 C9.16003906 11.87671875 9.16003906 11.87671875 9.9609375 13.28125 C11.49934968 17.30656909 10.58368979 19.62214493 8.94921875 23.48046875 C8.53285156 24.37378906 8.11648437 25.26710937 7.6875 26.1875 C0.29723461 43.94555798 0.21714835 62.07439828 0 81 C-4.82818425 83.8786773 -8.8427368 84.4232247 -14.34448242 84.35644531 C-15.15983963 84.35848969 -15.97519684 84.36053406 -16.81526184 84.36264038 C-19.49556306 84.3656352 -22.17524122 84.34721346 -24.85546875 84.328125 C-26.72300565 84.32506552 -28.59054484 84.32319084 -30.45808411 84.32244873 C-34.36431667 84.31785415 -38.27034212 84.30345809 -42.17651367 84.28125 C-47.18695875 84.25290957 -52.19724128 84.24203155 -57.2077589 84.2375679 C-61.06042611 84.23341513 -64.91306041 84.22359977 -68.76571083 84.21169281 C-70.61371917 84.20599172 -72.46173067 84.20123248 -74.30974388 84.19742584 C-76.88778645 84.19056359 -79.46569983 84.17693275 -82.04370117 84.16113281 C-83.19157608 84.15945602 -83.19157608 84.15945602 -84.36264038 84.15774536 C-87.50799774 84.1321695 -89.99334956 84.00221681 -93 83 C-94.60546875 81.22265625 -94.60546875 81.22265625 -96.1875 79.0625 C-96.71730469 78.35222656 -97.24710938 77.64195312 -97.79296875 76.91015625 C-99 75 -99 75 -99 73 C-97.18799287 72.4359143 -95.37534621 71.87388322 -93.5625 71.3125 C-91.77392578 70.75755859 -91.77392578 70.75755859 -89.94921875 70.19140625 C-87.31636453 69.38580687 -84.67572871 68.62711453 -82.01953125 67.90234375 C-51.68888454 59.54461372 -23.46610469 45.26407706 -6.83203125 17.5078125 C-3.89300717 11.88042737 -1.88847284 6.05582397 0 0 Z " fill="#3587CA" transform="translate(160,132)"/>
<path d="M0 0 C7.33758021 4.77952472 11.62552316 11.65835962 14 20 C15.54105899 31.01925366 12.94570686 38.96393563 7 48 C1.73069827 54.69586879 -7.0685477 58.33825319 -15.34765625 59.44921875 C-22.44244415 59.68986068 -27.93052604 58.69245564 -34 55 C-35.04800781 54.38125 -35.04800781 54.38125 -36.1171875 53.75 C-43.49878749 48.8475034 -47.64893302 41.43178111 -50 33 C-50.88055277 24.83952844 -50.30216839 18.0496591 -46 11 C-45.57589844 10.30132812 -45.15179688 9.60265625 -44.71484375 8.8828125 C-34.17648681 -6.6752075 -15.80622083 -8.79670733 0 0 Z " fill="#FED0B4" transform="translate(130,45)"/>
<path d="M0 0 C7.33590199 4.77843157 11.62856456 11.65837182 14 20 C15.32339593 30.72647224 12.87791124 40.16037827 6.4375 48.875 C0.59330741 55.08445462 -8.23204788 58.4669014 -16.578125 59.23828125 C-25.95366548 59.49871293 -32.80235274 56.59927719 -40.14453125 50.83984375 C-46.50171781 44.53619139 -50.27639048 36.12485724 -50.375 27.25 C-50.2690233 20.90464496 -49.34000486 16.37938477 -46 11 C-45.57589844 10.30261719 -45.15179688 9.60523438 -44.71484375 8.88671875 C-34.18944364 -6.68149144 -15.79943285 -8.79292959 0 0 Z " fill="#FED0B4" transform="translate(418,45)"/>
<path d="M0 0 C8.58 0 17.16 0 26 0 C25.56353424 20.73212374 16.95817588 40.63596468 3 56 C2.20078125 56.89203125 1.4015625 57.7840625 0.578125 58.703125 C-14.49353801 74.66660239 -32.73592858 82.63985917 -54 87 C-55.20269531 87.29390625 -55.20269531 87.29390625 -56.4296875 87.59375 C-72.84660208 90.18852069 -90.76395504 87.3233675 -106 81 C-106 80.67 -106 80.34 -106 80 C-105.01942627 79.94054199 -105.01942627 79.94054199 -104.01904297 79.87988281 C-85.66879226 78.73955537 -85.66879226 78.73955537 -68 74 C-67.3292041 73.75620605 -66.6584082 73.51241211 -65.96728516 73.26123047 C-56.12934414 69.6448947 -47.38010567 65.4009984 -39 59 C-38.4745459 58.60329102 -37.9490918 58.20658203 -37.40771484 57.79785156 C-17.72455864 42.74499582 -7.72147466 23.16442397 0 0 Z " fill="#355A79" transform="translate(325,264)"/>
<path d="M0 0 C3.94490238 3.95243082 5.17590077 8.04766309 6.6875 13.25 C12.47531223 31.73958065 22.75011165 46.97339406 36 61 C37.02867187 62.12535156 37.02867187 62.12535156 38.078125 63.2734375 C51.97611688 77.94354004 70.8722555 88.50653685 90.21386719 94.02441406 C94.46335168 95.27173634 97.28778715 96.42292336 100 100 C100.5625 102.9375 100.5625 102.9375 100 106 C98 108.875 98 108.875 95 111 C88.68953863 111.55021246 83.91744764 110.32942345 78.0625 108.0625 C76.82850464 107.59324097 76.82850464 107.59324097 75.56958008 107.11450195 C55.77205156 99.35988464 39.0296617 87.94797875 24 73 C23.51402344 72.51805176 23.02804688 72.03610352 22.52734375 71.53955078 C6.61736636 55.53745159 -10.18416127 30.06630672 -12.375 7.0625 C-12.32008805 3.7555805 -12.12436334 3.15451203 -9.9375 0.4375 C-6.0507849 -1.46450952 -4.11088021 -1.2706357 0 0 Z " fill="#363636" transform="translate(129,284)"/>
<path d="M0 0 C1.9375 1.0625 1.9375 1.0625 3 3 C3.3653385 8.94155778 2.57710898 13.45776756 0.5 19 C0.23227783 19.73130127 -0.03544434 20.46260254 -0.3112793 21.21606445 C-13.51813556 56.24490779 -39.16283825 86.02585771 -73.27148438 102.06835938 C-78.11670587 104.21855638 -83.03631237 106.14319807 -88 108 C-88.91910156 108.3609375 -89.83820313 108.721875 -90.78515625 109.09375 C-95.68457582 110.90897235 -99.77915922 111.70791061 -105 111 C-107.98202078 108.46528234 -108.83065071 106.81287661 -109.625 103 C-108.89360199 99.48928956 -107.58727753 98.35961741 -104.828125 96.17773438 C-101.6764292 94.14731497 -98.26930204 93.26203702 -94.6875 92.25 C-76.20807016 86.53855674 -60.99748706 76.22238192 -47 63 C-46.24976563 62.31421875 -45.49953125 61.6284375 -44.7265625 60.921875 C-29.97311726 46.94492687 -18.76752851 27.22207455 -13.5625 7.625 C-12.6112282 4.3947455 -11.96785477 2.96160431 -9.75 0.3125 C-6.04140103 -1.45751315 -3.91673385 -1.08798162 0 0 Z " fill="#363636" transform="translate(392,284)"/>
<path d="M0 0 C7.15096161 8.4650272 9.89234262 17.1895446 9.484375 28.25 C7.94274906 40.18516858 2.13640255 50.16146225 -7.1484375 57.6875 C-16.65199547 64.42419932 -26.85550288 66.24551449 -38.26953125 64.5 C-46.46701979 62.7554317 -46.46701979 62.7554317 -48.84375 59.38671875 C-49.2253125 58.59910156 -49.606875 57.81148437 -50 57 C-49.11699219 56.90203125 -48.23398438 56.8040625 -47.32421875 56.703125 C-35.39587475 55.21688665 -25.55892965 52.4690496 -16 45 C-15.38382812 44.52175781 -14.76765625 44.04351562 -14.1328125 43.55078125 C-6.55886793 36.86887904 -0.80057108 25.07777706 0 15 C0.13601518 9.99262642 0.11878128 5.00861071 0 0 Z " fill="#FCB78C" transform="translate(287,47)"/>
<path d="M0 0 C7.13184667 6.99038856 11.19438579 13.33529803 11.5625 23.5 C11.42708106 32.631106 8.00083107 39.9160171 2.3984375 47.03515625 C-3.97156309 53.16981199 -12.9948981 56.26766321 -21.6875 56.5625 C-27.25348625 56.32835394 -32.44362187 55.37818424 -37 52 C-38.23828125 49.859375 -38.23828125 49.859375 -39 48 C-38.34515625 47.92523438 -37.6903125 47.85046875 -37.015625 47.7734375 C-26.78116039 46.29898073 -16.04456753 42.20778546 -9.33984375 33.95703125 C-7.84145478 31.66562304 -6.39957744 29.3531357 -5 27 C-4.59265625 26.35546875 -4.1853125 25.7109375 -3.765625 25.046875 C0.37458437 17.42648964 -0.18247007 8.45748758 0 0 Z " fill="#FBB68B" transform="translate(133,48)"/>
<path d="M0 0 C-1.02738281 0.47308594 -2.05476563 0.94617188 -3.11328125 1.43359375 C-20.8261064 9.79601889 -31.18838491 20.03721494 -39.12890625 37.8984375 C-41.82820765 42.3728536 -44.87999037 44.38934505 -49.875 45.828125 C-60.90847958 47.31764474 -71.88537966 47.19626469 -83 47 C-83 46.67 -83 46.34 -83 46 C-81.96101562 46.14824219 -80.92203125 46.29648437 -79.8515625 46.44921875 C-75.3523068 46.80561682 -71.14640104 46.99726643 -67 45 C-62.65246925 40.24560121 -60.44842318 34.02993321 -57.99072266 28.16259766 C-52.32018901 15.78468069 -36.17126201 9.30346208 -24.34765625 4.5234375 C-6.60916376 -2.06349457 -6.60916376 -2.06349457 0 0 Z " fill="#C2D9ED" transform="translate(325,433)"/>
<path d="M0 0 C5.09940102 4.37091516 8.59791358 11.00785629 9.2734375 17.71484375 C9.58571353 27.62360245 7.38418172 35.82845144 1.4375 43.875 C-4.3866479 50.06315714 -13.26633128 53.55433367 -21.61328125 54.203125 C-27.83722912 54.31121093 -32.32214363 53.57110477 -38 51 C-38 49.33333333 -38 47.66666667 -38 46 C-37.03320312 45.78085938 -36.06640625 45.56171875 -35.0703125 45.3359375 C-23.28322031 42.52572963 -12.92736547 38.59375737 -6 28 C-2.23228035 20.47434698 0.16428549 13.63569586 0.0625 5.1875 C0.05347656 4.21167969 0.04445313 3.23585937 0.03515625 2.23046875 C0.02355469 1.49441406 0.01195312 0.75835937 0 0 Z " fill="#FBB78C" transform="translate(423,50)"/>
<path d="M0 0 C0.66 0.33 1.32 0.66 2 1 C0.948125 1.96486328 0.948125 1.96486328 -0.125 2.94921875 C-16.95490681 18.97879031 -23.73775865 37.64637673 -24.38476562 60.52929688 C-24.60243271 74.85501556 -23.29536991 85.57997411 -14 97 C-19.51600748 95.65463232 -23.30026041 93.23443388 -27 89 C-35.67163575 74.66616506 -35.05723411 55.47782138 -31.15625 39.4765625 C-25.38319096 22.11837821 -15.27279722 10.04400591 0 0 Z " fill="#EDF3F6" transform="translate(81,117)"/>
<path d="M0 0 C2.64 0 5.28 0 8 0 C8.14695313 1.39798828 8.14695313 1.39798828 8.296875 2.82421875 C10.74513316 23.69773016 18.48441509 42.81335088 32 59 C32.78375 60.051875 33.5675 61.10375 34.375 62.1875 C37.77860861 65.83422351 41.57252794 68.85273106 45.4765625 71.94921875 C47.45312952 73.55556192 49.25356047 75.15393137 51 77 C30.98917366 69.82700159 16.53831164 50.8251994 7.6875 32.375 C6.76705899 30.26054246 5.87017232 28.13563632 5 26 C4.5978125 25.01386719 4.195625 24.02773438 3.78125 23.01171875 C0.95834312 15.39995198 0.23919759 8.08487863 0 0 Z " fill="#EAF0F3" transform="translate(161,264)"/>
<path d="M0 0 C0.66 0.33 1.32 0.66 2 1 C1.48050781 1.53367188 0.96101563 2.06734375 0.42578125 2.6171875 C-9.83314953 13.5777457 -13.56936323 24.47693285 -13.3125 39.375 C-12.22146494 52.03100673 -6.34562803 62.67253338 2 72 C-5.89707715 69.7732079 -11.56602568 64.89535644 -15.90625 57.94921875 C-21.39014745 47.15615588 -24.35840967 36.71498167 -21.08984375 24.63671875 C-17.19304221 14.77568077 -11.17539516 6.21923985 -1.9140625 0.7734375 C-1.28242188 0.51820312 -0.65078125 0.26296875 0 0 Z " fill="#F0F3F4" transform="translate(238,36)"/>
<path d="M0 0 C0.99 0.33 1.98 0.66 3 1 C2.60167969 1.56847656 2.20335937 2.13695312 1.79296875 2.72265625 C-5.13297084 12.81666553 -8.5674205 22.39622864 -6.5390625 34.82421875 C-4.94323039 42.15565922 -2.13395326 47.786693 2 54 C2.33 54.66 2.66 55.32 3 56 C-1.34159632 55.73687295 -4.04089847 54.04104624 -7.15234375 51.17578125 C-13.9447018 43.17716934 -17.08344351 34.6359205 -16.48828125 24.19140625 C-15.21339422 15.8587446 -10.72685765 8.16604403 -4.38671875 2.578125 C-2.8125 1.4375 -2.8125 1.4375 0 0 Z " fill="#EFF2F3" transform="translate(384,44)"/>
<path d="M0 0 C0.66 0.33 1.32 0.66 2 1 C1.60167969 1.54527344 1.20335938 2.09054688 0.79296875 2.65234375 C-6.55990756 13.1181166 -8.64647189 23.29091952 -7 36 C-5.1654561 42.62474186 -2.11541655 48.51277794 2 54 C-3.31116308 52.59410389 -6.04660576 49.42235996 -9 45 C-13.87866034 36.26438829 -16.01068312 27.30136329 -13.30078125 17.4609375 C-10.48638145 10.54962661 -6.12070109 4.30032016 0 0 Z " fill="#ECEEEF" transform="translate(94,45)"/>
<path d="M0 0 C3.5 0.125 3.5 0.125 4.5 1.125 C4.92645763 4.87782712 4.80194116 6.65052103 2.75 9.875 C0.6289993 11.9960007 -0.64997251 13.26135531 -3.5 14.125 C-8.02631579 13.59868421 -8.02631579 13.59868421 -9.5 12.125 C-9.875 9.375 -9.875 9.375 -9.5 6.125 C-7.0625 3.3125 -7.0625 3.3125 -4.5 1.125 C-3.5 0.125 -3.5 0.125 0 0 Z " fill="#FFE4DB" transform="translate(245.5,43.875)"/>
<path d="M0 0 C0.7425 0.2475 1.485 0.495 2.25 0.75 C2.5625 3 2.5625 3 2.25 5.75 C0 8.0625 0 8.0625 -2.75 9.75 C-4.07 9.75 -5.39 9.75 -6.75 9.75 C-7.07728047 6.14991481 -7.15422813 4.33388508 -5.0625 1.3125 C-2.75 -0.25 -2.75 -0.25 0 0 Z " fill="#FFE4DA" transform="translate(393.75,48.25)"/>
<path d="M0 0 C0.7425 0.2475 1.485 0.495 2.25 0.75 C2.5625 3 2.5625 3 2.25 5.75 C0 8.125 0 8.125 -2.75 9.75 C-5.0625 9.5 -5.0625 9.5 -6.75 8.75 C-7.11554789 5.46006898 -7.01218503 4.11900115 -5.0625 1.375 C-2.75 -0.25 -2.75 -0.25 0 0 Z " fill="#FFE4DB" transform="translate(102.75,48.25)"/>
<path d="M0 0 C-3.465 2.97 -3.465 2.97 -7 6 C-6.34 4.68 -5.68 3.36 -5 2 C-5.33 1.34 -5.66 0.68 -6 0 C-4 -1 -4 -1 0 0 Z " fill="#EFD0BE" transform="translate(391,43)"/>
</svg>
